<svg width="473" height="192" viewBox="0 0 473 192" fill="none" xmlns="http://www.w3.org/2000/svg">
<path d="M415.751 0H20.9752V131.015H415.751V0Z" fill="#F6E58D"/>
<path d="M146.259 164.863C174.506 164.863 197.405 143.504 197.405 117.155C197.405 90.8066 174.506 69.4469 146.259 69.4469C118.012 69.4469 95.1133 90.8066 95.1133 117.155C95.1133 143.504 118.012 164.863 146.259 164.863Z" fill="#F6E58D"/>
<path d="M378.057 190.249C429.973 190.249 472.059 150.992 472.059 102.565C472.059 54.1389 429.973 14.8815 378.057 14.8815C326.141 14.8815 284.055 54.1389 284.055 102.565C284.055 150.992 326.141 190.249 378.057 190.249Z" fill="#F6E58D"/>
<path d="M241.981 192C269.192 192 291.25 171.424 291.25 146.043C291.25 120.661 269.192 100.085 241.981 100.085C214.771 100.085 192.713 120.661 192.713 146.043C192.713 171.424 214.771 192 241.981 192Z" fill="#F7F6FB"/>
<path d="M47.7214 96.3149C57.4609 96.0264 67.0734 98.4383 75.3434 103.246C83.6134 108.053 90.1694 115.04 94.1823 123.323C98.1953 131.606 99.4849 140.813 97.8882 149.78C96.2916 158.746 91.8802 167.07 85.2121 173.698C78.5439 180.326 69.9185 184.961 60.4264 187.016C50.9344 189.072 41.0021 188.455 31.8856 185.245C22.769 182.035 14.8777 176.376 9.20948 168.982C3.54126 161.589 0.350734 152.793 0.0413634 143.708C-0.164052 137.676 0.906286 131.665 3.19126 126.019C5.47624 120.373 8.93111 115.201 13.3586 110.8C17.7861 106.399 23.0995 102.855 28.9955 100.37C34.8915 97.8843 41.2545 96.5065 47.7214 96.3149V96.3149Z" fill="#F7F6FB"/>
</svg>
